<svg width="302" height="295" viewBox="0 0 302 295" fill="none" xmlns="http://www.w3.org/2000/svg">
<path d="M284.947 127.88C284.574 125.027 284.081 122.21 283.467 119.43C283.474 117.688 283.051 115.971 282.237 114.43C278.409 100.974 272.09 88.3553 263.607 77.23C242.187 48.67 212.127 25.97 177.937 15.12C161.807 10.01 144.257 7.7 127.397 9.73C108.993 11.9916 91.3553 18.4547 75.8473 28.62C60.6973 38.43 47.0673 50.76 34.9573 64.1C28.4873 71.23 22.2573 78.98 18.0673 87.7C13.4501 97.5134 10.7193 108.107 10.0173 118.93C8.61726 137.07 11.8873 154.93 18.3673 171.75C18.0903 176.185 18.4268 180.637 19.3673 184.98C21.4373 194.32 26.1973 203.24 30.8573 211.53C35.4113 219.518 40.5732 227.144 46.2973 234.34C57.0273 248.05 70.3473 260.1 85.5873 268.61C101.987 277.76 120.917 283.02 139.737 282.76C153.812 282.519 167.65 279.1 180.217 272.76C180.897 272.54 181.577 272.3 182.217 272.06C200.397 265.51 216.217 254.3 231.127 242.28C256.467 221.91 279.537 194.51 282.227 161.15C285.34 150.352 286.265 139.04 284.947 127.88Z" fill="#5ABC67"/>
<path d="M114.067 5.43999C82.5573 3.71999 54.4273 24.17 35.6873 47.81C15.0973 73.81 1.21728 105.51 0.0772833 138.93C-1.01272 170.72 9.50728 202.25 26.5673 228.83C35.3203 242.509 45.7701 255.026 57.6673 266.08C70.1473 277.63 84.4773 286.91 101.057 291.23C117.637 295.55 135.347 295.34 152.367 293.14C169.79 290.997 186.983 287.285 203.737 282.05C219.217 277.05 234.047 270.16 247.007 260.27C264.8 246.663 279.048 228.965 288.541 208.676C298.034 188.388 302.492 166.109 301.537 143.73C299.977 112.6 288.237 82.63 269.027 58.2C249.607 33.51 222.087 15.88 192.107 6.89999C176.912 2.35174 161.138 0.027638 145.277 0C129.577 0 113.457 1.94 98.9473 8.16C91.9103 11.1259 85.472 15.3481 79.9473 20.62C74.6873 25.71 82.7173 33.73 87.9473 28.62C98.1073 18.82 112.067 14.46 125.767 12.54C140.053 10.6188 154.544 10.8311 168.767 13.17C197.607 17.85 225.257 30.52 246.617 50.6C267.517 70.3816 281.831 96.1106 287.617 124.3C293.203 151.354 289.793 179.493 277.907 204.43C266.117 228.96 246.967 249.68 222.667 262.12C207.907 269.68 191.767 274.12 175.617 277.58C159.727 280.97 143.567 283.58 127.277 283.28C111.657 282.97 96.3573 279.51 82.9173 271.34C69.9173 263.42 58.8473 252.34 49.1373 240.65C30.2673 218.03 16.6573 190.36 12.4573 161.07C8.15728 131.07 15.6273 100.78 30.7673 74.77C44.8873 50.52 66.3473 26.53 94.3273 18.85C100.717 17.0906 107.351 16.3879 113.967 16.77C117.027 16.94 119.637 14.04 119.637 11.09C119.612 9.59329 119.006 8.16491 117.949 7.10549C116.891 6.04608 115.464 5.43826 113.967 5.41L114.067 5.43999Z" fill="#231F20"/>
<path d="M86.2073 177.21C81.6869 177.142 77.2954 178.716 73.8472 181.64L81.8472 189.64C95.3673 178.96 110.057 167.73 127.697 165.57C145.697 163.35 163.637 169.26 179.237 177.92C188.38 183.154 197.175 188.973 205.567 195.34C208.037 197.16 211.907 195.75 213.337 193.34C215.027 190.46 213.777 187.4 211.337 185.57C195.407 173.82 178.487 162.7 159.247 157.27C149.658 154.445 139.638 153.368 129.667 154.09C119.567 154.992 109.759 157.953 100.847 162.79C91.1173 167.96 82.4172 174.79 73.8472 181.64C71.4372 183.54 71.8472 187.64 73.8472 189.64C76.2273 192.02 79.4472 191.53 81.8472 189.64C83.1227 188.781 84.6559 188.389 86.1872 188.53C93.4972 188.72 93.4972 177.36 86.1872 177.18L86.2073 177.21Z" fill="#231F20"/>
<path d="M71.9473 161.9C81.5273 142.03 100.767 128.97 122.007 124.22C144.577 119.22 168.317 124.93 188.117 136.67C199.887 143.756 210.45 152.674 219.407 163.09C221.407 165.4 225.407 165.15 227.407 163.09C228.439 162.014 229.015 160.581 229.015 159.09C229.015 157.599 228.439 156.166 227.407 155.09C210.097 135.16 186.847 119.34 160.847 113.51C136.367 107.98 110.037 111.96 89.0073 125.98C77.6473 133.56 68.0573 143.81 62.1073 156.17C60.7773 158.93 61.3473 162.31 64.1073 163.94C66.5973 165.39 70.5373 164.68 71.8773 161.94L71.9473 161.9Z" fill="#231F20"/>
<path d="M65.6773 121.22C75.7773 101.08 95.2873 87.33 116.937 82.06C142.617 75.82 170.727 81.06 194.047 92.9C206.529 99.082 217.624 107.737 226.657 118.34C228.657 120.69 232.657 120.34 234.657 118.34C236.987 116.01 236.657 112.67 234.657 110.34C216.947 89.19 190.357 75.8 163.537 70.59C136.327 65.3 107.127 68.59 83.8073 84.4C71.967 92.2134 62.327 102.931 55.8073 115.53C55.0831 116.833 54.8869 118.365 55.259 119.809C55.6312 121.253 56.5433 122.499 57.8073 123.29C60.3273 124.77 64.1973 124.01 65.5773 121.29L65.6773 121.22Z" fill="#231F20"/>
</svg>
