<svg xmlns="http://www.w3.org/2000/svg" viewBox="0 0 512 512" id="spotify"><path fill="#5abc67" d="M390.1 236.54q-.56-4.28-1.48-8.45a10.62 10.62 0 0 0-1.23-5 111.81 111.81 0 0 0-18.63-37.2c-21.42-28.56-51.48-51.26-85.67-62.11-16.13-5.11-33.68-7.42-50.54-5.39A120.94 120.94 0 0 0 181 137.28c-15.15 9.81-28.78 22.14-40.89 35.48-6.47 7.13-12.7 14.88-16.89 23.6a86.51 86.51 0 0 0-8.05 31.23c-1.4 18.14 1.87 36 8.35 52.82a48.29 48.29 0 0 0 1 13.23c2.07 9.34 6.83 18.26 11.49 26.55A179.26 179.26 0 0 0 151.45 343c10.73 13.71 24.05 25.76 39.29 34.27 16.4 9.15 35.33 14.41 54.15 14.15a93.43 93.43 0 0 0 40.48-10c.68-.22 1.36-.46 2-.7 18.18-6.55 34-17.76 48.91-29.78 25.34-20.37 48.41-47.77 51.1-81.13a84.39 84.39 0 0 0 2.72-33.27Z"></path><path fill="#231f20" d="M219.22 114.1c-31.51-1.72-59.64 18.73-78.38 42.37-20.59 26-34.47 57.7-35.61 91.12-1.09 31.79 9.43 63.32 26.49 89.9a192.4 192.4 0 0 0 31.1 37.25c12.48 11.55 26.81 20.83 43.39 25.15s34.29 4.11 51.31 1.91a291.57 291.57 0 0 0 51.37-11.09c15.48-5 30.31-11.89 43.27-21.78a139.24 139.24 0 0 0 54.53-116.54c-1.56-31.13-13.3-61.1-32.51-85.53-19.42-24.69-46.94-42.32-76.92-51.3a164.31 164.31 0 0 0-46.83-6.9c-15.7 0-31.82 1.94-46.33 8.16a62.92 62.92 0 0 0-19 12.46c-5.26 5.09 2.77 13.11 8 8 10.16-9.8 24.12-14.16 37.82-16.08a145.49 145.49 0 0 1 43 .63c28.84 4.68 56.49 17.35 77.85 37.43a140.33 140.33 0 0 1 41 73.7 126.7 126.7 0 0 1-9.71 80.13c-11.79 24.53-30.94 45.25-55.24 57.69-14.76 7.56-30.9 12-47.05 15.46-15.89 3.39-32.05 6-48.34 5.7-15.62-.31-30.92-3.77-44.36-11.94-13-7.92-24.07-19-33.78-30.69-18.87-22.62-32.48-50.29-36.68-79.58-4.3-30 3.17-60.29 18.31-86.3 14.12-24.25 35.58-48.24 63.56-55.92a60.78 60.78 0 0 1 19.64-2.08c3.06.17 5.67-2.73 5.67-5.68a5.78 5.78 0 0 0-5.67-5.68Z"></path><path fill="#231f20" d="M191.36 285.87A18.68 18.68 0 0 0 179 290.3l8 8c13.52-10.68 28.21-21.91 45.85-24.07 18-2.22 35.94 3.69 51.54 12.35A244.8 244.8 0 0 1 310.72 304c2.47 1.82 6.34.41 7.77-2 1.69-2.88.44-5.94-2-7.77-15.93-11.75-32.85-22.87-52.09-28.3a83.35 83.35 0 0 0-29.58-3.18 74.28 74.28 0 0 0-28.82 8.7c-9.73 5.17-18.43 12-27 18.85-2.41 1.9-2 6 0 8 2.38 2.38 5.6 1.89 8 0a6.67 6.67 0 0 1 4.34-1.11c7.31.19 7.31-11.17 0-11.35Z"></path><path fill="#231f20" d="M177.1 270.56c9.58-19.87 28.82-32.93 50.06-37.68 22.57-5 46.31.71 66.11 12.45a129.08 129.08 0 0 1 31.29 26.42c2 2.31 6 2.06 8 0a5.78 5.78 0 0 0 0-8C315.25 243.82 292 228 266 222.17c-24.48-5.53-50.81-1.55-71.84 12.47-11.36 7.58-20.95 17.83-26.9 30.19-1.33 2.76-.76 6.14 2 7.77 2.49 1.45 6.43.74 7.77-2Z"></path><path fill="#231f20" d="M170.83 229.88c10.1-20.14 29.61-33.89 51.26-39.16 25.68-6.24 53.79-1 77.11 10.84A102.75 102.75 0 0 1 331.81 227c2 2.35 6 2 8 0 2.33-2.33 2-5.67 0-8-17.71-21.15-44.3-34.54-71.12-39.75-27.21-5.29-56.41-2-79.73 13.81a83 83 0 0 0-28 31.13 5.82 5.82 0 0 0 2 7.76c2.52 1.48 6.39.72 7.77-2Z"></path></svg>