<?xml version="1.0" standalone="no"?>
<!DOCTYPE svg PUBLIC "-//W3C//DTD SVG 20010904//EN"
 "http://www.w3.org/TR/2001/REC-SVG-20010904/DTD/svg10.dtd">
<svg version="1.0" xmlns="http://www.w3.org/2000/svg"
 width="302.000000pt" height="302.000000pt" viewBox="0 0 302.000000 302.000000"
 preserveAspectRatio="xMidYMid meet">
<metadata>
Created by potrace 1.14, written by Peter Selinger 2001-2017
</metadata>
<g transform="translate(0.000000,302.000000) scale(0.100000,-0.100000)"
fill="#000000" stroke="none">
<path d="M1230 2965 c-41 -7 -95 -18 -120 -25 -25 -7 -58 -14 -75 -16 -28 -4
-79 -13 -115 -20 -34 -7 -145 -55 -203 -88 -322 -180 -597 -580 -688 -997 -31
-142 -33 -400 -4 -529 3 -14 7 -37 10 -51 35 -191 164 -465 316 -669 77 -105
262 -292 349 -352 137 -97 281 -155 430 -174 144 -18 380 -5 570 32 14 2 38 7
53 9 52 10 253 63 317 85 385 130 696 421 844 789 103 258 128 541 72 807 -90
425 -362 794 -741 1007 -152 86 -333 150 -518 183 -115 21 -392 26 -497 9z
m712 -181 c107 -37 289 -125 322 -156 11 -10 23 -18 28 -18 27 0 206 -160 289
-260 156 -186 274 -445 305 -670 3 -19 7 -48 9 -65 20 -133 -7 -378 -57 -530
-29 -88 -114 -267 -130 -273 -4 -2 -8 -8 -8 -13 0 -12 -73 -112 -116 -159 -18
-19 -41 -44 -51 -55 -32 -36 -136 -121 -202 -165 -108 -72 -333 -166 -436
-181 -5 -1 -21 -5 -34 -10 -13 -5 -40 -12 -60 -15 -20 -3 -65 -12 -100 -20
-35 -8 -66 -13 -69 -9 -3 3 0 5 7 5 17 0 237 88 306 122 58 30 202 116 227
137 7 6 60 48 118 93 288 227 468 481 515 724 8 43 20 99 25 124 38 167 31
325 -22 490 -114 359 -488 730 -913 906 -105 44 -83 43 47 -2z m-1235 -125
c-47 -33 -112 -85 -145 -115 -33 -30 -63 -54 -66 -54 -3 0 25 30 61 66 71 70
197 164 221 164 8 0 -24 -27 -71 -61z m-577 -1219 c0 -8 11 -51 25 -95 14 -44
28 -107 30 -140 2 -33 8 -75 14 -94 10 -33 7 -60 -3 -30 -23 68 -36 112 -40
131 -2 13 -9 43 -15 68 -5 25 -13 68 -16 95 -4 28 -8 64 -11 80 -3 22 -2 26 6
15 5 -8 10 -22 10 -30z m119 -465 c0 -5 -6 1 -14 15 -8 14 -14 30 -14 35 0 6
6 -1 14 -15 8 -14 14 -29 14 -35z m21 -36 c0 -18 106 -186 178 -281 201 -268
504 -458 785 -493 91 -12 66 -22 -30 -13 -183 17 -320 69 -458 171 -52 39
-233 221 -271 272 -16 22 -32 42 -35 45 -14 11 -111 162 -148 231 -42 76 -49
95 -31 84 6 -3 10 -11 10 -16z m1060 -785 c0 -8 -19 -13 -24 -6 -3 5 1 9 9 9
8 0 15 -2 15 -3z"/>
</g>
</svg>
